<?xml version="1.0" encoding="utf-8"?>
<!-- Generator: Adobe Illustrator 23.0.3, SVG Export Plug-In . SVG Version: 6.00 Build 0)  -->
<svg version="1.1" id="Layer_1" xmlns="http://www.w3.org/2000/svg" xmlns:xlink="http://www.w3.org/1999/xlink" x="0px" y="0px"
	 viewBox="0 0 300 300" style="enable-background:new 0 0 300 300;" xml:space="preserve">
<style type="text/css">
	.st0{display:none;}
	.st1{display:inline;fill:#38003D;stroke:#38003D;stroke-width:0.5;stroke-linejoin:round;}
	.st2{fill:#231F20;}
	.st3{fill:none;stroke:#231F20;stroke-width:0.523;stroke-miterlimit:3.864;}
	.st4{fill-rule:evenodd;clip-rule:evenodd;fill:#EF3E33;}
	.st5{fill:none;stroke:#FFFFFF;stroke-width:0.674;stroke-miterlimit:3.864;}
	.st6{fill-rule:evenodd;clip-rule:evenodd;fill:#A63493;}
	.st7{fill-rule:evenodd;clip-rule:evenodd;fill:#0060A9;}
	.st8{fill-rule:evenodd;clip-rule:evenodd;fill:#0099D8;}
	.st9{fill-rule:evenodd;clip-rule:evenodd;fill:#2CA343;}
	.st10{fill-rule:evenodd;clip-rule:evenodd;fill:#FFE01A;}
	.st11{fill-rule:evenodd;clip-rule:evenodd;fill:#F9A13A;}
	.st12{fill:#FFFFFF;}
	.st13{fill:none;stroke:#231F20;stroke-width:0.102;stroke-miterlimit:3.864;}
</style>
<g id="g4199" transform="matrix(0.43313146,0,0,0.43313146,-183.17823,-116.6152)" class="st0">
	<path id="path4138" class="st1" d="M648.51,401.13c78.28-43.21,158.56-48.91,232.57-28.66c3.14-25.24,4.99-47.34,18.96-77.71
		c-18.54,13.55-30.51,28.8-44.2,45.34l-4.56-70.58l-59.32,66.02l-40.64-66.3l-24.95,74.15l-72.72-51.33l12.26,71.3
		c-16.68-13.83-35.22-27.66-53.9-35.36C626.27,346.95,640.24,373.04,648.51,401.13L648.51,401.13z"/>
	<path id="path4142" class="st1" d="M951.38,431.08c-20.68-17.25-41.49-32.23-87.27-43.49c4.14,8.98,7.56,20.53,7.56,32.51
		c-11.84-12.55-26.09-28.23-43.63-37.36c-57.75-7.56-117.07,6.99-163.69,30.37c19.68,2.28,35.22,17.68,40.5,34.65
		c-55.75-38.78-87.69,17.11-55.47,73.01c-34.65-16.54-36.22-56.75-25.67-83.27c-25.95,19.82-65.73,57.89-90.55,109.51l31.8,4.42
		c-38.5,45.2-57.75,110.37-61.6,148.58l51.76-16.83c-16.4,59.32-3.28,151.72,17.68,185.37c32.37-25.38,58.18-57.18,84.98-97.53
		c16.97,53.61,13.97,109.51,0.71,166.4c75.43,42.78,169.4,25.38,231-20.96c2.57,10.98,4.42,16.11,9.55,40.07
		c74.72-51.76,100.1-115.07,107.37-176.38l24.24,26.81c32.51-105.09,13.12-190.5-44.63-273.06l-2.42,19.25
		c-6.7-8.41-17.68-18.68-22.81-25.1c-0.86-1-0.57-1.57-1.14-2.42c2.71-1.71,7.84-3.99,9.13-7.7c-0.57-4.99-6.42-17.97-10.69-20.39
		c-10.69,1-19.25,10.41-19.39,13.83c-5.56-5.28-10.84-11.12-27.09-17.11c7.27,7.41,14.26,18.68,19.39,28.66
		c10.69,7.84,28.52,22.81,41.78,36.5l-2.57,2.57c-14.54-11.41-53.76-10.41-75.29,0.43c-10.41-12.55-22.67-26.52-39.64-41.92
		c-4.14-7.13-4.56-19.68,8.7-30.66c-14.54,1.28-20.53,7.56-27.52,13.4c-10.12-7.7-23.53-15.68-45.06-21.82
		c-16.97,3.42-37.36,14.26-45.2,23.81c19.68,10.55,25.81,13.69,37.79,14.54c17.54,1.28,32.94-2.71,44.2,4.42
		c13.97,12.41,40.07,35.65,43.78,46.2c-22.53-12.98-56.47-6.13-93.97-8.13c-35.51-4.28-55.18-30.51-55.47-51.76l-25.24-3.99
		c14.26-19.53,32.23-28.23,45.49-32.8l-13.83-11.55c22.24-19.11,56.75-34.36,91.97-37.5c24.38,12.12,45.2,25.24,59.6,37.07
		c6.42-10.84,7.41-22.53,8.27-30.23c27.81,12.83,58.89,34.79,81.56,57.89C961.22,473,954.37,453.75,951.38,431.08L951.38,431.08z
		 M842.72,691.16c-10.69-20.39-21.1-43.63-33.37-63.03c23.67-16.97,46.06-34.51,84.41-44.35c8.13,6.7,20.11,14.83,37.07,20.96v40.5
		C906.75,661.79,882.65,688.74,842.72,691.16L842.72,691.16z M923.14,683.75l29.23-0.14c4.99,4.71,15.26,20.39,15.97,32.8
		c-2.28,17.4-15.83,49.48-39.64,61.74c0.71-14.83-1-34.08-3.99-44.77c-13.55,15.26-35.65,22.1-47.05,24.67
		c-4.71-12.55-12.55-26.52-20.11-37.93C878.09,715.97,903.89,701,923.14,683.75L923.14,683.75z M980.18,585.36
		c19.25,40.78,15.11,79.85,1.57,99.96c-6.56-15.11-19.25-30.09-29.94-39.64l0.43-39.64C964.5,599.62,972.77,592.63,980.18,585.36
		L980.18,585.36z"/>
</g>
<g id="La_Liga">
	<path class="st2" d="M101.69,152.45c0-26.27,21.3-47.56,47.56-47.56c26.27,0,47.57,21.3,47.57,47.56
		c0,26.26-21.29,47.55-47.57,47.55C122.99,200,101.69,178.71,101.69,152.45z"/>
	<path class="st3" d="M101.69,152.45c0-26.27,21.3-47.56,47.56-47.56c26.27,0,47.57,21.3,47.57,47.56
		c0,26.26-21.29,47.55-47.57,47.55C122.99,200,101.69,178.71,101.69,152.45z"/>
	<path class="st4" d="M260.75,48.61C231.3,22.68,190.74,9.88,149.08,17.23l11.62,65.86c20.86-3.68,41.17,2.75,55.9,15.75
		l44.18-50.14L260.75,48.61z"/>
	<path class="st5" d="M260.75,48.61C231.3,22.68,190.74,9.88,149.08,17.23l11.62,65.86c20.86-3.68,41.17,2.75,55.9,15.75
		l44.18-50.14L260.75,48.61z"/>
	<path class="st6" d="M137.64,0.5C98.99,7.37,63.71,31.1,43.48,68.24l58.73,31.99c10.14-18.61,27.82-30.48,47.18-33.89l-11.66-65.8
		L137.64,0.5z"/>
	<path class="st5" d="M137.64,0.5C98.99,7.37,63.71,31.1,43.48,68.24l58.73,31.99c10.14-18.61,27.82-30.48,47.18-33.89l-11.66-65.8
		L137.64,0.5z"/>
	<path class="st7" d="M23.27,66.75C4.54,101.24,1.1,143.62,17.53,182.59l61.62-25.97c-8.22-19.52-6.48-40.75,2.92-58.01L23.36,66.7
		L23.27,66.75z"/>
	<path class="st5" d="M23.27,66.75C4.54,101.24,1.1,143.62,17.53,182.59l61.62-25.97c-8.22-19.52-6.48-40.75,2.92-58.01L23.36,66.7
		L23.27,66.75z"/>
	<path class="st8" d="M3.76,197.47c15.29,36.14,46.27,65.26,86.99,76.71l18.11-64.36c-20.38-5.74-35.9-20.33-43.53-38.44l-61.55,26
		L3.76,197.47z"/>
	<path class="st5" d="M3.76,197.47c15.29,36.14,46.27,65.26,86.99,76.71l18.11-64.36c-20.38-5.74-35.9-20.33-43.53-38.44l-61.55,26
		L3.76,197.47z"/>
	<path class="st9" d="M93.79,294.22c37.79,10.58,79.87,4.51,114.2-20.18l-39.03-54.29c-17.2,12.37-38.28,15.4-57.2,10.06
		l-18.04,64.34L93.79,294.22z"/>
	<path class="st5" d="M93.79,294.22c37.79,10.58,79.87,4.51,114.2-20.18l-39.03-54.29c-17.2,12.37-38.28,15.4-57.2,10.06
		l-18.04,64.34L93.79,294.22z"/>
	<path class="st10" d="M225.56,284.15c31.83-22.94,53.31-59.62,55.42-101.86l-66.77-3.34c-1.06,21.16-11.83,39.52-27.8,50.99
		l39.05,54.22L225.56,284.15z"/>
	<path class="st5" d="M225.56,284.15c31.83-22.94,53.31-59.62,55.42-101.86l-66.77-3.34c-1.06,21.16-11.83,39.52-27.8,50.99
		l39.05,54.22L225.56,284.15z"/>
	<path class="st11" d="M299.84,174.86c1.91-39.18-13.37-78.85-45.08-106.83l-44.24,50.12c15.88,14.02,23.52,33.89,22.53,53.51
		l66.73,3.28L299.84,174.86z"/>
	<path class="st5" d="M299.84,174.86c1.91-39.18-13.37-78.85-45.08-106.83l-44.24,50.12c15.88,14.02,23.52,33.89,22.53,53.51
		l66.73,3.28L299.84,174.86z"/>
	<path class="st12" d="M149.24,135.89l-0.06-18.81l-14.52-9.82c0,0-5.42,1.09-13.37,6.62c-6.56,4.56-10.48,10.55-10.48,10.55
		l4.97,17.04l17.72,5.82L149.24,135.89z"/>
	<path class="st3" d="M149.24,135.89l-0.06-18.81l-14.52-9.82c0,0-5.42,1.09-13.37,6.62c-6.56,4.56-10.48,10.55-10.48,10.55
		l4.97,17.04l17.72,5.82L149.24,135.89z"/>
	<path class="st12" d="M133.38,147.27l-17.61-5.8l-14.08,10.71c0,0-0.29,6.69,2.18,14.8c2.33,7.64,6.8,13.23,6.8,13.23l17.58,0.32
		l11.11-14.71L133.38,147.27z"/>
	<path class="st3" d="M133.38,147.27l-17.61-5.8l-14.08,10.71c0,0-0.29,6.69,2.18,14.8c2.33,7.64,6.8,13.23,6.8,13.23l17.58,0.32
		l11.11-14.71L133.38,147.27z"/>
	<path class="st12" d="M139.35,165.78l-11.15,14.8l6.31,16.88c0,0,4.98,2.11,14.66,2.3c7.98,0.17,14.68-2.37,14.68-2.37l6.1-16.52
		l-10.77-15.12L139.35,165.78z"/>
	<path class="st3" d="M139.35,165.78l-11.15,14.8l6.31,16.88c0,0,4.98,2.11,14.66,2.3c7.98,0.17,14.68-2.37,14.68-2.37l6.1-16.52
		l-10.77-15.12L139.35,165.78z"/>
	<path class="st12" d="M159.18,165.74l10.73,15.08l17.89-0.62c0,0,3.9-5.39,6.68-13.09c2.92-8.13,2.28-14.71,2.28-14.71
		l-14.08-11.02l-17.86,5.73L159.18,165.74z"/>
	<path class="st3" d="M159.18,165.74l10.73,15.08l17.89-0.62c0,0,3.9-5.39,6.68-13.09c2.92-8.13,2.28-14.71,2.28-14.71l-14.08-11.02
		l-17.86,5.73L159.18,165.74z"/>
	<path class="st12" d="M165.05,147.16l17.61-5.73l4.94-17.05c0,0-2.79-4.63-10.51-10.49c-6.36-4.82-13.28-6.7-13.28-6.7l-14.64,9.89
		l0.07,18.76L165.05,147.16z"/>
	<path class="st3" d="M165.05,147.16l17.61-5.73l4.94-17.05c0,0-2.79-4.63-10.51-10.49c-6.36-4.82-13.28-6.7-13.28-6.7l-14.64,9.89
		l0.07,18.76L165.05,147.16z"/>
	<polygon class="st2" points="149.24,132.03 168.79,145.9 161.34,168.76 137.14,168.69 129.77,145.99 	"/>
	<polygon class="st13" points="149.24,132.03 168.79,145.9 161.34,168.76 137.14,168.69 129.77,145.99 	"/>
</g>
</svg>
