<?xml version="1.0" standalone="no"?>
<!DOCTYPE svg PUBLIC "-//W3C//DTD SVG 20010904//EN"
 "http://www.w3.org/TR/2001/REC-SVG-20010904/DTD/svg10.dtd">
<svg version="1.0" xmlns="http://www.w3.org/2000/svg"
 width="20.000000pt" height="20.000000pt" viewBox="0 0 32.000000 44.000000"
 preserveAspectRatio="xMidYMid meet">

<g transform="translate(0.000000,44.000000) scale(0.100000,-0.100000)"
fill="#ffffff" stroke="none">
<path d="M159 395 c-3 -2 -14 -6 -25 -9 -39 -8 -64 -19 -64 -26 0 -9 32 -1 83
19 15 6 27 13 27 16 0 6 -15 7 -21 0z"/>
<path d="M220 376 c0 -2 12 -12 28 -21 l27 -18 -19 21 c-17 20 -36 29 -36 18z"/>
<path d="M170 363 c-32 -12 -50 -37 -50 -70 0 -32 28 -73 50 -73 16 0 12 18
-10 40 -11 11 -20 25 -20 30 0 15 38 50 55 50 25 0 40 -45 27 -75 -19 -42 -13
-52 13 -22 28 31 30 45 14 80 -9 19 -51 51 -62 46 -1 0 -9 -3 -17 -6z"/>
<path d="M35 310 c-3 -5 1 -10 10 -10 8 0 20 -12 26 -26 10 -28 4 -64 -12 -64
-5 0 -9 -4 -9 -10 0 -16 37 -11 44 6 11 28 6 69 -10 92 -16 23 -39 29 -49 12z"/>
<path d="M173 309 c-16 -16 -5 -39 19 -39 14 0 19 6 16 22 -4 25 -19 33 -35
17z"/>
<path d="M278 280 c-4 -14 -8 -38 -8 -55 1 -25 2 -27 11 -12 6 9 9 34 7 55 -3
33 -4 35 -10 12z"/>
<path d="M36 273 c-12 -12 -6 -43 9 -43 8 0 15 9 15 19 0 21 -13 34 -24 24z"/>
<path d="M140 187 c-27 -14 -33 -38 -11 -45 8 -3 11 0 7 6 -4 6 2 16 13 21 25
14 71 14 71 1 0 -5 5 -10 10 -10 6 0 10 6 10 14 0 27 -58 35 -100 13z"/>
<path d="M173 163 c-7 -2 -13 -9 -13 -15 0 -12 41 -6 41 7 1 12 -11 15 -28 8z"/>
<path d="M11 78 c-1 -21 4 -28 17 -28 11 0 13 3 6 8 -7 4 -14 16 -17 27 -4 15
-5 14 -6 -7z"/>
<path d="M57 93 c-11 -10 -8 -43 3 -43 6 0 10 11 10 25 0 26 -2 29 -13 18z"/>
<path d="M97 93 c-14 -14 -7 -43 11 -43 26 0 33 10 21 31 -10 20 -21 24 -32
12z m23 -23 c0 -5 -4 -10 -10 -10 -5 0 -10 5 -10 10 0 6 5 10 10 10 6 0 10 -4
10 -10z"/>
<path d="M157 93 c-11 -18 3 -43 24 -43 14 0 19 7 19 26 0 27 -19 24 -21 -4
-1 -10 -4 -7 -8 8 -4 15 -10 20 -14 13z"/>
<path d="M220 75 c0 -33 25 -33 28 0 1 16 -3 25 -13 25 -9 0 -15 -10 -15 -25z"/>
<path d="M300 76 c0 -14 5 -26 10 -26 6 0 10 9 10 19 0 11 -4 23 -10 26 -6 4
-10 -5 -10 -19z"/>
</g>
</svg>
