<?xml version="1.0" encoding="utf-8"?>
<!-- Generator: Adobe Illustrator 23.0.3, SVG Export Plug-In . SVG Version: 6.00 Build 0)  -->
<svg version="1.1" id="Layer_1" xmlns="http://www.w3.org/2000/svg" xmlns:xlink="http://www.w3.org/1999/xlink" x="0px" y="0px"
	 viewBox="0 0 300 300" style="enable-background:new 0 0 300 300;" xml:space="preserve">
<style type="text/css">
	.st0{fill:#ffffff;stroke:#ffffff;stroke-width:0.5;stroke-linejoin:round;}
</style>
<g id="g4199" transform="matrix(0.43313146,0,0,0.43313146,-183.17823,-116.6152)">
	<path id="path4138" class="st0" d="M648.51,401.13c78.28-43.21,158.56-48.91,232.57-28.66c3.14-25.24,4.99-47.34,18.96-77.71
		c-18.54,13.55-30.51,28.8-44.2,45.34l-4.56-70.58l-59.32,66.02l-40.64-66.3l-24.95,74.15l-72.72-51.33l12.26,71.3
		c-16.68-13.83-35.22-27.66-53.9-35.36C626.27,346.95,640.24,373.04,648.51,401.13L648.51,401.13z"/>
	<path id="path4142" class="st0" d="M951.38,431.08c-20.68-17.25-41.49-32.23-87.27-43.49c4.14,8.98,7.56,20.53,7.56,32.51
		c-11.84-12.55-26.09-28.23-43.63-37.36c-57.75-7.56-117.07,6.99-163.69,30.37c19.68,2.28,35.22,17.68,40.5,34.65
		c-55.75-38.78-87.69,17.11-55.47,73.01c-34.65-16.54-36.22-56.75-25.67-83.27c-25.95,19.82-65.73,57.89-90.55,109.51l31.8,4.42
		c-38.5,45.2-57.75,110.37-61.6,148.58l51.76-16.83c-16.4,59.32-3.28,151.72,17.68,185.37c32.37-25.38,58.18-57.18,84.98-97.53
		c16.97,53.61,13.97,109.51,0.71,166.4c75.43,42.78,169.4,25.38,231-20.96c2.57,10.98,4.42,16.11,9.55,40.07
		c74.72-51.76,100.1-115.07,107.37-176.38l24.24,26.81c32.51-105.09,13.12-190.5-44.63-273.06l-2.42,19.25
		c-6.7-8.41-17.68-18.68-22.81-25.1c-0.86-1-0.57-1.57-1.14-2.42c2.71-1.71,7.84-3.99,9.13-7.7c-0.57-4.99-6.42-17.97-10.69-20.39
		c-10.69,1-19.25,10.41-19.39,13.83c-5.56-5.28-10.84-11.12-27.09-17.11c7.27,7.41,14.26,18.68,19.39,28.66
		c10.69,7.84,28.52,22.81,41.78,36.5l-2.57,2.57c-14.54-11.41-53.76-10.41-75.29,0.43c-10.41-12.55-22.67-26.52-39.64-41.92
		c-4.14-7.13-4.56-19.68,8.7-30.66c-14.54,1.28-20.53,7.56-27.52,13.4c-10.12-7.7-23.53-15.68-45.06-21.82
		c-16.97,3.42-37.36,14.26-45.2,23.81c19.68,10.55,25.81,13.69,37.79,14.54c17.54,1.28,32.94-2.71,44.2,4.42
		c13.97,12.41,40.07,35.65,43.78,46.2c-22.53-12.98-56.47-6.13-93.97-8.13c-35.51-4.28-55.18-30.51-55.47-51.76l-25.24-3.99
		c14.26-19.53,32.23-28.23,45.49-32.8l-13.83-11.55c22.24-19.11,56.75-34.36,91.97-37.5c24.38,12.12,45.2,25.24,59.6,37.07
		c6.42-10.84,7.41-22.53,8.27-30.23c27.81,12.83,58.89,34.79,81.56,57.89C961.22,473,954.37,453.75,951.38,431.08L951.38,431.08z
		 M842.72,691.16c-10.69-20.39-21.1-43.63-33.37-63.03c23.67-16.97,46.06-34.51,84.41-44.35c8.13,6.7,20.11,14.83,37.07,20.96v40.5
		C906.75,661.79,882.65,688.74,842.72,691.16L842.72,691.16z M923.14,683.75l29.23-0.14c4.99,4.71,15.26,20.39,15.97,32.8
		c-2.28,17.4-15.83,49.48-39.64,61.74c0.71-14.83-1-34.08-3.99-44.77c-13.55,15.26-35.65,22.1-47.05,24.67
		c-4.71-12.55-12.55-26.52-20.11-37.93C878.09,715.97,903.89,701,923.14,683.75L923.14,683.75z M980.18,585.36
		c19.25,40.78,15.11,79.85,1.57,99.96c-6.56-15.11-19.25-30.09-29.94-39.64l0.43-39.64C964.5,599.62,972.77,592.63,980.18,585.36
		L980.18,585.36z"/>
</g>
</svg>
